<svg id="Layer_1" data-name="Layer 1" xmlns="http://www.w3.org/2000/svg" viewBox="0 0 45 40.1"><defs><style>.cls-1{fill:#fff;}</style></defs><title>VCX UI</title><g id="Chat"><path class="cls-1" d="M2.9,40.1A1,1,0,0,1,2,38.78a53.92,53.92,0,0,0,2.87-8.63A16.66,16.66,0,0,1,0,18.58C0,8.34,10.09,0,22.5,0S45,8.34,45,18.58,34.91,37.17,22.5,37.17A26.33,26.33,0,0,1,14.7,36C12,37.47,4.1,39.79,3.17,40.06A.84.84,0,0,1,2.9,40.1ZM22.5,1.92C11.15,1.92,1.92,9.4,1.92,18.58A14.87,14.87,0,0,0,6.56,29.11a1,1,0,0,1,.28.71c-.06,1.75-1.41,5.52-2.31,7.83,3.21-1,8.15-2.61,9.54-3.5a1,1,0,0,1,.81-.1,24.83,24.83,0,0,0,7.62,1.2c11.35,0,20.58-7.48,20.58-16.67S33.85,1.92,22.5,1.92Z"/></g></svg>