<svg id="Layer_1" data-name="Layer 1" xmlns="http://www.w3.org/2000/svg" viewBox="0 0 45.41 44.57"><defs><style>.cls-1{fill:#fff;}</style></defs><title>VCX UI</title><path class="cls-1" d="M44,29.44h0a1.06,1.06,0,0,0-1.06,1l-.12,9.75L27.39,24.87a1.06,1.06,0,0,0-1.49,1.5l15.5,15.5a.66.66,0,0,0,.17.12l-10.35-.13h0a1.06,1.06,0,0,0,0,2.11l12.58.17h0a1.05,1.05,0,0,0,.74-.3,1.07,1.07,0,0,0,.32-.75L45,30.52A1.06,1.06,0,0,0,44,29.44Z"/><path class="cls-1" d="M42.7,42l0,0v0Z"/><path class="cls-1" d="M17.7,24.87,2.33,40.24l-.12-9.75a1.06,1.06,0,0,0-1.06-1h0a1.06,1.06,0,0,0-1,1.08L.25,43.09a1.07,1.07,0,0,0,.32.75,1.05,1.05,0,0,0,.74.3h0L13.9,44a1.06,1.06,0,0,0,0-2.11h0L3.52,42a.66.66,0,0,0,.17-.12l15.5-15.5a1.06,1.06,0,0,0-1.49-1.5Z"/><path class="cls-1" d="M2.35,42v0l0,0Z"/><path class="cls-1" d="M26.55,19.57a1,1,0,0,0,.75-.31L42.67,3.9l.12,9.75a1.06,1.06,0,0,0,1.06,1h0a1,1,0,0,0,1-1.07L44.75,1.05A1.07,1.07,0,0,0,44.43.3a1,1,0,0,0-.75-.3L31.1.16a1.06,1.06,0,0,0-1,1.08,1,1,0,0,0,1.07,1l10.35-.13a1,1,0,0,0-.17.11L25.81,17.77a1,1,0,0,0,0,1.49A1,1,0,0,0,26.55,19.57Z"/><path class="cls-1" d="M42.65,2.13v0l0,0Z"/><path class="cls-1" d="M1.05,14.69h0a1.06,1.06,0,0,0,1.06-1L2.24,3.9,17.61,19.26a1.05,1.05,0,0,0,1.49,0,1,1,0,0,0,0-1.49L3.6,2.26a1,1,0,0,0-.17-.11l10.35.13a1.06,1.06,0,0,0,0-2.12L1.23,0A1.1,1.1,0,0,0,.48.3a1.07,1.07,0,0,0-.32.75L0,13.62A1,1,0,0,0,1.05,14.69Z"/><path class="cls-1" d="M2.3,2.13l0,0v0Z"/></svg>