<svg id="Layer_1" data-name="Layer 1" xmlns="http://www.w3.org/2000/svg" viewBox="0 0 45 44.16"><defs><style>.cls-1{fill:#fff;}</style></defs><title>VCX UI</title><path class="cls-1" d="M44.7,42.41l-15-15a.62.62,0,0,0-.17-.11l10,.13h0a1,1,0,0,0,0-2.06l-12.2-.16a.92.92,0,0,0-.73.3,1,1,0,0,0-.31.72l-.15,12.19a1,1,0,0,0,1,1h0a1,1,0,0,0,1-1L28.35,29l14.9,14.9a1,1,0,0,0,1.45,0A1,1,0,0,0,44.7,42.41ZM28.37,27.25h0l0,0Z"/><path class="cls-1" d="M18.45,25.48a.92.92,0,0,0-.73-.3l-12.2.16a1,1,0,0,0,0,2.06h0l10-.13a.62.62,0,0,0-.17.11l-15,15a1,1,0,0,0,0,1.45,1,1,0,0,0,1.45,0L16.74,29l.12,9.46a1,1,0,0,0,1,1h0a1,1,0,0,0,1-1L18.76,26.2A1.08,1.08,0,0,0,18.45,25.48Zm-1.77,1.77h0v0Z"/><path class="cls-1" d="M26.55,18.69a1.06,1.06,0,0,0,.72.29h0l12.2-.16a1,1,0,0,0,0-2.05l-10,.13a1,1,0,0,0,.17-.12l15-15A1,1,0,0,0,43.16.3L28.26,15.2l-.12-9.46a1,1,0,0,0-1-1h0a1,1,0,0,0-1,1L26.24,18A1.08,1.08,0,0,0,26.55,18.69Zm1.77-1.78h0v0Z"/><path class="cls-1" d="M15.33,16.78a1,1,0,0,0,.17.12l-10-.13h0a1,1,0,0,0,0,2.05l12.2.16h0a1.06,1.06,0,0,0,.72-.29,1,1,0,0,0,.31-.72l.15-12.2a1,1,0,0,0-1-1h0a1,1,0,0,0-1,1l-.12,9.46L1.75.3A1,1,0,0,0,.3,1.75Zm1.3.13h0l0,0Z"/></svg>