<svg id="Layer_1" data-name="Layer 1" xmlns="http://www.w3.org/2000/svg" viewBox="0 0 45 37.05"><defs><style>.cls-1{fill:#fff;}</style></defs><title>VCX UI</title><path class="cls-1" d="M34.56,28.4a.85.85,0,0,1-.61-.25.87.87,0,0,1,0-1.23A13.84,13.84,0,0,0,34,7.37a.87.87,0,1,1,1.23-1.23,15.6,15.6,0,0,1,0,22A.86.86,0,0,1,34.56,28.4Z"/><path class="cls-1" d="M38.4,31.5A.87.87,0,0,1,37.78,30a18.69,18.69,0,0,0,0-26.44A.87.87,0,1,1,39,2.35a20.42,20.42,0,0,1,0,28.9A.85.85,0,0,1,38.4,31.5Z"/><path class="cls-1" d="M25.89,37.05a.86.86,0,0,1-.51-.16l-13.7-10H2.83a2.89,2.89,0,0,1-2-.78A2.69,2.69,0,0,1,0,24.13V12.93A2.69,2.69,0,0,1,.84,11a2.86,2.86,0,0,1,2-.78h8.85l13.7-10a.86.86,0,0,1,1.38.7V36.19a.86.86,0,0,1-.87.86ZM2.83,11.93a1.14,1.14,0,0,0-.79.31,1,1,0,0,0-.3.69v11.2a1,1,0,0,0,.3.69,1.17,1.17,0,0,0,.79.3H12a.87.87,0,0,1,.51.17L25,34.47V2.58L12.48,11.77a.93.93,0,0,1-.51.16Z"/><path class="cls-1" d="M31.17,24.68a.87.87,0,0,1-.61-1.48,7.68,7.68,0,0,0,0-10.86.87.87,0,0,1,0-1.23.86.86,0,0,1,1.22,0,9.4,9.4,0,0,1,0,13.31A.87.87,0,0,1,31.17,24.68Z"/></svg>